<?xml version="1.0" encoding="UTF-8"?>
<svg width="15px" height="16px" viewBox="0 0 15 16" version="1.1" xmlns="http://www.w3.org/2000/svg" xmlns:xlink="http://www.w3.org/1999/xlink">
    <!-- Generator: Sketch 54.1 (76490) - https://sketchapp.com -->
    <desc>Created with Sketch.</desc>
    <g id="页面1" stroke="none" stroke-width="1" fill-rule="evenodd">
        <g id="画板" transform="translate(-64.000000, -16.000000)" fill-rule="nonzero">
            <g id="编辑-新" transform="translate(64.000000, 16.000000)">
                <path d="M14.55385,2.89311727 L6.9456282,11.3542994 L4.52199203,11.9870613 C4.29539072,12.0462223 4.06703711,11.8969003 4.01194996,11.6535413 C3.99501438,11.5787248 3.99609571,11.5005093 4.01509206,11.4262657 L4.63311022,9.01086138 L12.2668685,0.521279938 C12.8767323,-0.156955962 13.8830829,-0.17582092 14.5146154,0.479143875 C15.146148,1.13410867 15.1637139,2.21488138 14.55385,2.89311727 Z M13.9463705,2.26309798 C14.2322442,1.9451749 14.2240102,1.4385627 13.9279793,1.13154795 C13.6319485,0.824533204 13.1602216,0.833376152 12.8743479,1.15129923 L5.39031266,9.47437221 L5.0194487,10.9238222 L6.508229,10.5351321 L13.9463705,2.26309798 Z" id="形状结合"></path>
                <path d="M14,9.80164373 L14,4.36573507 C14,3.05889004 12.9382152,2.00000001 11.6290733,2 L2.37092671,2 C1.06178481,2.00000001 0,3.05889004 0,4.36573506 L0,13.6342649 C0,14.94111 1.06178482,16 2.37092671,16 L8.52173453,16 C8.77946741,16 8.9884012,15.7910662 8.9884012,15.5333333 C8.9884012,15.2756005 8.77946741,15.0666667 8.52173453,15.0666667 L2.37092671,15.0666667 C1.57668104,15.0666667 0.933333333,14.4250729 0.933333333,13.6342649 L0.933333333,4.36573506 C0.933333333,3.57492707 1.57668104,2.93333334 2.37092672,2.93333333 L11.6290733,2.93333333 C12.423319,2.93333334 13.0666667,3.57492707 13.0666667,4.36573506 L13.0666666,9.80164372 C13.0666666,10.0593766 13.2756004,10.2683104 13.5333333,10.2683104 C13.7910662,10.2683104 14,10.0593766 14,9.80164373 Z" id="路径复制-3" transform="translate(7.000000, 9.000000) rotate(-90.000000) translate(-7.000000, -9.000000) "></path>
            </g>
        </g>
    </g>
</svg>
