<?xml version="1.0" encoding="UTF-8"?>
<svg width="18px" height="14px" viewBox="0 0 18 14" version="1.1" xmlns="http://www.w3.org/2000/svg" xmlns:xlink="http://www.w3.org/1999/xlink">
    <!-- Generator: Sketch 54.1 (76490) - https://sketchapp.com -->
    <desc>Created with Sketch.</desc>
    <g id="页面1" stroke="none" stroke-width="1"  fill-rule="evenodd">
        <g id="icon复制" transform="translate(-108.000000, -76.000000)"  fill-rule="nonzero">
            <g id="查看/预览" transform="translate(109.000000, 77.000000)">
                <path d="M7.88272277,12.5 C11.906734,12.5 16.302138,8.20299081 16.302138,6 C16.302138,3.79700919 11.906734,-0.5 7.88272277,-0.5 C5.67058902,-0.5 3.62166797,0.582198566 1.87656601,2.36062779 C0.613278233,3.64804133 -0.433864375,5.31431458 -0.46944136,5.97127838 C-0.505512163,6.637361 0.539549278,8.31719728 1.84763268,9.64062422 C3.60110428,11.4146637 5.66948699,12.5 7.88272277,12.5 Z M7.88272277,11.5 C5.94190017,11.5 4.08959485,10.5280453 2.49666104,8.91642673 C1.37962444,7.78628753 0.455448938,6.30076383 0.470181015,6.02872162 C0.488179097,5.69636946 1.42359996,4.20787424 2.5280604,3.08232125 C4.11245649,1.46766699 5.94453549,0.5 7.88272277,0.5 C9.84133147,0.5 11.7099642,1.43364596 13.2928175,2.9810658 C14.4599263,4.12204786 15.3609615,5.57155385 15.3609615,6 C15.3609615,6.42844615 14.4599263,7.87795214 13.2928175,9.0189342 C11.7099642,10.566354 9.84133147,11.5 7.88272277,11.5 Z" id="椭圆形"></path>
                <path d="M7.88272277,9.5 C9.70201371,9.5 11.1768404,7.93299662 11.1768404,6 C11.1768404,4.06700338 9.70201371,2.5 7.88272277,2.5 C6.06343183,2.5 4.58860512,4.06700338 4.58860512,6 C4.58860512,7.93299662 6.06343183,9.5 7.88272277,9.5 Z M7.88272277,8.5 C6.58322924,8.5 5.52978159,7.38071187 5.52978159,6 C5.52978159,4.61928813 6.58322924,3.5 7.88272277,3.5 C9.1822163,3.5 10.2356639,4.61928813 10.2356639,6 C10.2356639,7.38071187 9.1822163,8.5 7.88272277,8.5 Z" id="椭圆形"></path>
            </g>
        </g>
    </g>
</svg>
