<?xml version="1.0" standalone="no"?><!DOCTYPE svg PUBLIC "-//W3C//DTD SVG 1.1//EN" "http://www.w3.org/Graphics/SVG/1.1/DTD/svg11.dtd"><svg class="icon" width="200px" height="200.00px" viewBox="0 0 1024 1024" version="1.1" xmlns="http://www.w3.org/2000/svg"><path fill="#333333" d="M903.62828693 773.13791787c-59.96956373-46.6824096-232.83245013-124.22773547-232.83245013-124.22773547L558.5574304 855.2676544l-16.63704853-49.15908373 30.713376-62.0489216-61.471504-62.05328747-61.4933344 62.05328747 30.76031146 62.0489216-19.828672 50.31937706-109.1133664-207.51558186c0 0-172.83778133 77.57042987-232.81716906 124.22773546-59.9739296 46.6605792-86.44999893 188.33964267-86.44999894 188.33964267l959.56104427 0C991.77997653 961.47756053 974.2031232 828.07881813 903.62828693 773.13791787L903.62828693 773.13791787 903.62828693 773.13791787 903.62828693 773.13791787zM516.87421227 631.1761504C657.74336213 630.95675307 751.64957973 443.5765632 751.64957973 342.70968c0-100.85487573-0.39949867-280.18724053-234.77536746-280.18724053-234.3562208 0-234.77536747 179.353104-234.77536747 280.21452906C282.0988448 443.59621013 376.01925227 631.402096 516.87421227 631.1761504L516.87421227 631.1761504 516.87421227 631.1761504 516.87421227 631.1761504zM516.87421227 631.1761504" /></svg>