<?xml version="1.0" encoding="UTF-8"?>
<svg width="14px" height="14px" viewBox="0 0 14 14" version="1.1" xmlns="http://www.w3.org/2000/svg" xmlns:xlink="http://www.w3.org/1999/xlink">
    <!-- Generator: Sketch 54.1 (76490) - https://sketchapp.com -->
    <desc>Created with Sketch.</desc>
    <g id="页面1" stroke="none" stroke-width="1" fill="none" fill-rule="evenodd">
        <g id="项目方案维护页-tab状态icon" transform="translate(-133.000000, -134.000000)">
            <g id="编组-4" transform="translate(133.000000, 134.000000)">
                <circle id="椭圆形复制-6" fill="#5B7DFF" cx="7" cy="7" r="7"></circle>
                <g id="查看/预览" transform="translate(2.800000, 3.733333)" fill="#FFFFFF" fill-rule="nonzero">
                    <path d="M4.18338663,6.53333333 C6.19869284,6.53333333 8.4,4.37381077 8.4,3.26666667 C8.4,2.15952257 6.19869284,0 4.18338663,0 C3.07550532,0 2.04936423,0.543874151 1.17538189,1.43764884 C0.542701824,2.08465667 0.0182716328,2.92206579 0.000453959348,3.25223221 C-0.0176110279,3.58698143 0.505776872,4.43120684 1.16089149,5.09631371 C2.03906552,5.98788225 3.0749534,6.53333333 4.18338663,6.53333333 Z M4.18338663,6.03076923 C3.21138343,6.03076923 2.28371148,5.5422997 1.48593802,4.73235805 C0.926503498,4.16439065 0.463657721,3.41781977 0.471035844,3.28110112 C0.480049647,3.11407285 0.948527331,2.36600859 1.50166345,1.80034607 C2.29516105,0.988878796 3.21270325,0.502564103 4.18338663,0.502564103 C5.16429747,0.502564103 6.10014653,0.971781045 6.89287147,1.74945871 C7.47738314,2.32287534 7.92863979,3.05134501 7.92863979,3.26666667 C7.92863979,3.48198832 7.47738314,4.210458 6.89287147,4.78387462 C6.10014653,5.56155229 5.16429747,6.03076923 4.18338663,6.03076923 Z" id="椭圆形"></path>
                    <path d="M4.2,5.22666667 C5.19411255,5.22666667 6,4.34914478 6,3.26666667 C6,2.18418856 5.19411255,1.30666667 4.2,1.30666667 C3.20588745,1.30666667 2.4,2.18418856 2.4,3.26666667 C2.4,4.34914478 3.20588745,5.22666667 4.2,5.22666667 Z M4.2,4.66666667 C3.48991961,4.66666667 2.91428571,4.03986532 2.91428571,3.26666667 C2.91428571,2.49346802 3.48991961,1.86666667 4.2,1.86666667 C4.91008039,1.86666667 5.48571429,2.49346802 5.48571429,3.26666667 C5.48571429,4.03986532 4.91008039,4.66666667 4.2,4.66666667 Z" id="椭圆形"></path>
                </g>
            </g>
        </g>
    </g>
</svg>
