<?xml version="1.0" encoding="UTF-8"?>
<svg width="14px" height="14px" viewBox="0 0 14 14" version="1.1" xmlns="http://www.w3.org/2000/svg" xmlns:xlink="http://www.w3.org/1999/xlink">
    <!-- Generator: Sketch 54.1 (76490) - https://sketchapp.com -->
    <desc>Created with Sketch.</desc>
    <g id="页面1" stroke="none" stroke-width="1" fill="none" fill-rule="evenodd">
        <g id="项目方案维护页-tab状态icon" transform="translate(-133.000000, -55.000000)">
            <g id="编组复制-2" transform="translate(133.000000, 55.000000)">
                <g id="已完成" fill="#46BAC1">
                    <circle id="椭圆形" cx="7" cy="7" r="7"></circle>
                </g>
                <path d="M3.12132034,8.74264069 L7.12132034,8.74264069 C7.39746272,8.74264069 7.62132034,8.51878306 7.62132034,8.24264069 C7.62132034,7.96649831 7.39746272,7.74264069 7.12132034,7.74264069 L3.12132034,7.74264069 C2.84517797,7.74264069 2.62132034,7.96649831 2.62132034,8.24264069 C2.62132034,8.51878306 2.84517797,8.74264069 3.12132034,8.74264069 Z" id="直线-17" fill="#FFFFFF" fill-rule="nonzero" transform="translate(5.121320, 8.242641) rotate(-315.000000) translate(-5.121320, -8.242641) "></path>
                <path d="M9.51040764,10.6819805 L9.51040764,3.68198052 C9.51040764,3.40583814 9.28655002,3.18198052 9.01040764,3.18198052 C8.73426527,3.18198052 8.51040764,3.40583814 8.51040764,3.68198052 L8.51040764,10.6819805 C8.51040764,10.9581229 8.73426527,11.1819805 9.01040764,11.1819805 C9.28655002,11.1819805 9.51040764,10.9581229 9.51040764,10.6819805 Z" id="直线-5" fill="#FFFFFF" fill-rule="nonzero" transform="translate(9.010408, 7.181981) rotate(-315.000000) translate(-9.010408, -7.181981) "></path>
            </g>
        </g>
    </g>
</svg>
