<svg width="274" height="274" viewBox="0 0 274 274" fill="none" xmlns="http://www.w3.org/2000/svg">
<g filter="url(#filter0_ii_0_4)">
<rect width="274" height="274" rx="48" transform="matrix(-1 0 0 1 274.001 0)" fill="url(#paint0_linear_0_4)"/>
</g>
<g filter="url(#filter1_d_0_4)">
<path fill-rule="evenodd" clip-rule="evenodd" d="M194.506 83.2085C200.086 89.0021 204.629 95.4748 208.01 102.448C212.556 111.824 214.861 121.762 214.861 131.987C214.861 133.297 214.818 134.605 214.738 135.91C210.161 131.221 204.733 127.371 198.706 124.61C197.919 119.251 196.298 114.021 193.859 108.989C191.157 103.418 187.512 98.2307 183.025 93.5717C171.438 81.5451 155.117 73.7885 137.067 71.7287C133.788 71.3544 130.546 71.1652 127.433 71.1652C124.468 71.1652 121.365 71.3397 118.208 71.6846C100.074 73.6634 83.6579 81.3811 71.9844 93.4182C67.4761 98.0677 63.8112 103.243 61.0903 108.801C57.4485 116.241 55.6014 124.125 55.6014 132.232C55.6014 142.678 58.7916 153.013 64.8285 162.12C67.3923 165.99 70.4442 169.601 73.9205 172.91C75.1579 174.088 76.4434 175.232 77.7876 176.33C78.6656 177.047 79.5006 177.698 80.3367 178.318C81.9795 179.519 82.9654 181.473 82.9654 183.542C82.9654 184.29 82.8082 184.957 82.6542 185.512C82.3806 186.558 82.0705 187.744 81.7526 188.96C81.2451 190.901 80.7178 192.917 80.2874 194.562C80.0818 195.35 79.9021 196.037 79.7558 196.596C79.7008 196.806 79.6506 196.998 79.6054 197.171L79.0134 199.571C79.0134 200.158 79.4702 200.635 80.0329 200.635C80.2047 200.635 80.3922 200.563 80.7243 200.368L80.7411 200.359L96.7543 190.888C96.868 190.821 96.9808 190.766 97.0935 190.711C97.1564 190.68 97.2193 190.65 97.2823 190.617C98.6433 189.908 99.9854 189.541 101.368 189.541C102.256 189.541 103.121 189.674 103.938 189.936C107.949 191.115 112.101 191.974 116.301 192.536C116.501 192.563 116.701 192.591 116.902 192.619C117.337 192.68 117.773 192.741 118.21 192.789C121.043 193.102 123.915 193.272 126.757 193.295C128.831 198.54 131.705 203.378 135.228 207.66C132.589 207.868 129.979 207.973 127.433 207.973C123.774 207.973 120.066 207.769 116.413 207.366C110.794 206.745 105.464 205.756 100.092 204.209L75.1359 216.78C75.0405 216.846 74.9406 216.903 74.84 216.96C74.7958 216.985 74.7515 217.01 74.7074 217.036C74.678 217.054 74.6445 217.069 74.6141 217.087C73.6303 217.652 72.5061 218 71.2918 218C67.5746 218 64.5624 214.977 64.5624 211.248C64.5624 211.107 64.5808 210.972 64.5992 210.837C64.6092 210.763 64.6193 210.689 64.6263 210.615C64.6307 210.568 64.6348 210.522 64.6389 210.476C64.6596 210.243 64.6802 210.011 64.73 209.788C64.8264 209.35 64.9637 208.929 65.1407 208.527L66.1476 204.442L69.6417 189.938C63.3324 184.787 55.9618 176.38 51.6515 169.876C44.0294 158.375 40.001 145.274 40.001 131.987C40.001 121.667 42.3426 111.648 46.9619 102.21C50.367 95.2561 54.934 88.7981 60.5392 83.0182C74.7409 68.3756 94.5876 58.9998 116.425 56.6172C120.178 56.2071 123.882 56 127.433 56C131.16 56 135.028 56.225 138.931 56.6698C160.671 59.1502 180.409 68.5754 194.506 83.2085Z" fill="white"/>
<path d="M157.443 156.239L137.283 176.471C137.127 176.627 137.127 176.88 137.283 177.036L157.443 197.269" stroke="white" stroke-width="11" stroke-linecap="round"/>
<path d="M209.558 197.751L229.719 177.518C229.874 177.362 229.874 177.11 229.719 176.953L209.558 156.721" stroke="white" stroke-width="11" stroke-linecap="round"/>
<path d="M195.53 148.138L170.001 209.96" stroke="white" stroke-width="11" stroke-linecap="round"/>
</g>
<defs>
<filter id="filter0_ii_0_4" x="0.000976562" y="0" width="274" height="274" filterUnits="userSpaceOnUse" color-interpolation-filters="sRGB">
<feFlood flood-opacity="0" result="BackgroundImageFix"/>
<feBlend mode="normal" in="SourceGraphic" in2="BackgroundImageFix" result="shape"/>
<feColorMatrix in="SourceAlpha" type="matrix" values="0 0 0 0 0 0 0 0 0 0 0 0 0 0 0 0 0 0 127 0" result="hardAlpha"/>
<feOffset dx="1" dy="1"/>
<feComposite in2="hardAlpha" operator="arithmetic" k2="-1" k3="1"/>
<feColorMatrix type="matrix" values="0 0 0 0 1 0 0 0 0 1 0 0 0 0 1 0 0 0 0.8 0"/>
<feBlend mode="normal" in2="shape" result="effect1_innerShadow_0_4"/>
<feColorMatrix in="SourceAlpha" type="matrix" values="0 0 0 0 0 0 0 0 0 0 0 0 0 0 0 0 0 0 127 0" result="hardAlpha"/>
<feOffset dx="-1" dy="-1"/>
<feComposite in2="hardAlpha" operator="arithmetic" k2="-1" k3="1"/>
<feColorMatrix type="matrix" values="0 0 0 0 0.189583 0 0 0 0 0.450128 0 0 0 0 0.758333 0 0 0 1 0"/>
<feBlend mode="normal" in2="effect1_innerShadow_0_4" result="effect2_innerShadow_0_4"/>
</filter>
<filter id="filter1_d_0_4" x="36.001" y="52" width="203.335" height="170" filterUnits="userSpaceOnUse" color-interpolation-filters="sRGB">
<feFlood flood-opacity="0" result="BackgroundImageFix"/>
<feColorMatrix in="SourceAlpha" type="matrix" values="0 0 0 0 0 0 0 0 0 0 0 0 0 0 0 0 0 0 127 0" result="hardAlpha"/>
<feOffset/>
<feGaussianBlur stdDeviation="2"/>
<feComposite in2="hardAlpha" operator="out"/>
<feColorMatrix type="matrix" values="0 0 0 0 0.2675 0 0 0 0 0.52965 0 0 0 0 0.891667 0 0 0 1 0"/>
<feBlend mode="normal" in2="BackgroundImageFix" result="effect1_dropShadow_0_4"/>
<feBlend mode="normal" in="SourceGraphic" in2="effect1_dropShadow_0_4" result="shape"/>
</filter>
<linearGradient id="paint0_linear_0_4" x1="227" y1="-23.5" x2="51" y2="249" gradientUnits="userSpaceOnUse">
<stop stop-color="#3AACFF"/>
<stop offset="1" stop-color="#2A80F8"/>
</linearGradient>
</defs>
</svg>
